<?xml version="1.0" encoding="UTF-8" standalone="no"?>
<!-- Generator: Adobe Illustrator 16.0.2, SVG Export Plug-In . SVG Version: 6.00 Build 0)  -->

<svg
   xmlns:dc="http://purl.org/dc/elements/1.1/"
   xmlns:cc="http://creativecommons.org/ns#"
   xmlns:rdf="http://www.w3.org/1999/02/22-rdf-syntax-ns#"
   xmlns:svg="http://www.w3.org/2000/svg"
   xmlns="http://www.w3.org/2000/svg"
   xmlns:sodipodi="http://sodipodi.sourceforge.net/DTD/sodipodi-0.dtd"
   xmlns:inkscape="http://www.inkscape.org/namespaces/inkscape"
   version="1.1"
   id="Layer_1"
   x="0px"
   y="0px"
   width="285.5px"
   height="97px"
   viewBox="0 0 285.5 97"
   enable-background="new 0 0 285.5 97"
   xml:space="preserve"
   inkscape:version="0.48.3.1 r9886"
   sodipodi:docname="57n_logo_min-1.svg"><metadata
   id="metadata61"><rdf:RDF><cc:Work
       rdf:about=""><dc:format>image/svg+xml</dc:format><dc:type
         rdf:resource="http://purl.org/dc/dcmitype/StillImage" /><dc:title></dc:title></cc:Work></rdf:RDF></metadata><defs
   id="defs59" /><sodipodi:namedview
   pagecolor="#ffffff"
   bordercolor="#666666"
   borderopacity="1"
   objecttolerance="10"
   gridtolerance="10"
   guidetolerance="10"
   inkscape:pageopacity="0"
   inkscape:pageshadow="2"
   inkscape:window-width="1362"
   inkscape:window-height="729"
   id="namedview57"
   showgrid="false"
   inkscape:zoom="1.1978984"
   inkscape:cx="-5.4261696"
   inkscape:cy="48.5"
   inkscape:window-x="0"
   inkscape:window-y="18"
   inkscape:window-maximized="0"
   inkscape:current-layer="Layer_3" />
<g
   id="Layer_3">
	<g
   id="_x35_7_2_">
		<g
   enable-background="new    "
   id="g5">
			<path
   fill="#7EC5CB"
   d="M97.872,20.189h-6.779l-0.376,2.69c0.376-0.055,0.699-0.055,1.13-0.055c1.667,0,3.362,0.377,4.6,1.265     c1.318,0.888,2.125,2.341,2.125,4.385c0,3.256-2.798,6.134-7.505,6.134c-2.125,0-3.901-0.484-4.869-0.995l0.726-3.067     c0.78,0.377,2.368,0.861,3.955,0.861c1.695,0,3.497-0.807,3.497-2.663c0-1.803-1.426-2.905-4.923-2.905     c-0.968,0-1.641,0.054-2.367,0.161l1.157-9.173h9.631V20.189z"
   id="path7"
   style="fill:#000039;fill-opacity:1" />
			<path
   fill="#7EC5CB"
   d="M113.659,16.827v2.582l-7.209,14.903h-4.332l7.21-14.069v-0.054h-8.017v-3.362H113.659z"
   id="path9"
   style="fill:#000039;fill-opacity:1" />
		</g>
	</g>
	<g
   id="North_2_"
   enable-background="new    ">
		<path
   fill="#7EC5CB"
   d="M115.017,48.408V16.742h8.363l6.578,11.604c1.879,3.336,3.759,7.282,5.168,10.854h0.141    c-0.47-4.182-0.611-8.457-0.611-13.202v-9.256h6.577v31.666h-7.517l-6.766-12.215c-1.879-3.383-3.946-7.471-5.497-11.182    l-0.141,0.047c0.188,4.181,0.282,8.645,0.282,13.813v9.537H115.017z"
   id="path12"
   style="fill:#000039;fill-opacity:1" />
		<path
   fill="#7EC5CB"
   d="M169.752,36.663c0,8.409-5.967,12.262-12.121,12.262c-6.719,0-11.887-4.416-11.887-11.839    c0-7.424,4.887-12.169,12.262-12.169C165.054,24.917,169.752,29.757,169.752,36.663z M153.121,36.897    c0,3.946,1.644,6.906,4.697,6.906c2.771,0,4.558-2.771,4.558-6.906c0-3.43-1.315-6.906-4.558-6.906    C154.389,29.991,153.121,33.515,153.121,36.897z"
   id="path14"
   style="fill:#000039;fill-opacity:1" />
		<path
   fill="#7EC5CB"
   d="M174.169,32.998c0-3.383-0.094-5.591-0.188-7.563h6.155l0.235,4.228h0.188    c1.175-3.335,3.994-4.745,6.201-4.745c0.658,0,0.987,0,1.504,0.095v6.718c-0.517-0.094-1.127-0.188-1.926-0.188    c-2.631,0-4.417,1.409-4.887,3.617c-0.094,0.47-0.141,1.034-0.141,1.598v11.651h-7.142V32.998z"
   id="path16"
   style="fill:#000039;fill-opacity:1" />
		<path
   fill="#7EC5CB"
   d="M200.996,18.856v6.578h5.121v5.262h-5.121v8.315c0,2.772,0.658,4.041,2.818,4.041    c0.893,0,1.598-0.095,2.114-0.188l0.048,5.403c-0.94,0.376-2.632,0.61-4.652,0.61c-2.302,0-4.229-0.799-5.355-1.974    c-1.315-1.362-1.973-3.57-1.973-6.812v-9.396h-3.055v-5.262h3.055v-4.98L200.996,18.856z"
   id="path18"
   style="fill:#000039;fill-opacity:1" />
		<path
   fill="#7EC5CB"
   d="M210.251,15.051h7.142v13.108h0.094c0.752-0.986,1.691-1.738,2.818-2.35    c1.034-0.563,2.396-0.893,3.712-0.893c4.558,0,8.034,3.148,8.034,10.055v13.437h-7.141V35.771c0-3.007-1.034-5.074-3.713-5.074    c-1.879,0-3.053,1.222-3.57,2.49c-0.188,0.47-0.234,1.08-0.234,1.597v13.625h-7.142V15.051z"
   id="path20"
   style="fill:#000039;fill-opacity:1" />
	</g>
	<g
   enable-background="new    "
   id="g22">
		<path
   d="M119.011,51.586v9.18h9.689v-9.18h4.182V74.5H128.7V64.403h-9.689V74.5h-4.182V51.586H119.011z"
   id="path24"
   style="fill:#000039;fill-opacity:1" />
		<path
   d="M142.267,68.007l-1.972,6.493h-4.317l7.343-22.914h5.338l7.445,22.914h-4.487l-2.074-6.493H142.267z M148.828,64.845    l-1.802-5.644c-0.442-1.394-0.815-2.957-1.155-4.283h-0.068c-0.34,1.326-0.68,2.924-1.088,4.283l-1.768,5.644H148.828z"
   id="path26"
   style="fill:#000039;fill-opacity:1" />
		<path
   d="M175.008,73.82c-0.986,0.51-3.162,1.02-5.915,1.02c-7.275,0-11.695-4.556-11.695-11.524    c0-7.548,5.235-12.104,12.239-12.104c2.754,0,4.725,0.578,5.575,1.021l-0.918,3.331c-1.088-0.476-2.583-0.884-4.487-0.884    c-4.658,0-8.023,2.924-8.023,8.432c0,5.031,2.958,8.261,7.989,8.261c1.7,0,3.468-0.34,4.556-0.85L175.008,73.82z"
   id="path28"
   style="fill:#000039;fill-opacity:1" />
		<path
   d="M178.579,51.586h4.147v10.539h0.103c0.544-0.884,1.122-1.699,1.665-2.481l5.984-8.058h5.167l-7.888,9.758l8.397,13.156    h-4.896l-6.493-10.505l-2.04,2.447V74.5h-4.147V51.586z"
   id="path30"
   style="fill:#000039;fill-opacity:1" />
		<path
   d="M198.367,51.586h4.182v19.412h9.416V74.5h-13.598V51.586z"
   id="path32"
   style="fill:#000039;fill-opacity:1" />
		<path
   d="M219.854,68.007l-1.972,6.493h-4.317l7.344-22.914h5.337L233.69,74.5h-4.487l-2.074-6.493H219.854z M226.415,64.845    l-1.802-5.644c-0.441-1.394-0.816-2.957-1.156-4.283h-0.067c-0.34,1.326-0.681,2.924-1.088,4.283l-1.769,5.644H226.415z"
   id="path34"
   style="fill:#000039;fill-opacity:1" />
		<path
   d="M236.888,51.893c1.326-0.272,3.739-0.477,6.085-0.477c3.094,0,4.998,0.374,6.563,1.462    c1.428,0.851,2.379,2.346,2.379,4.284c0,2.107-1.326,4.045-3.807,4.963v0.068c2.413,0.611,4.623,2.516,4.623,5.678    c0,2.039-0.885,3.637-2.21,4.725c-1.632,1.429-4.317,2.143-8.499,2.143c-2.313,0-4.08-0.17-5.134-0.307V51.893z M241.035,60.936    h2.143c2.889,0,4.521-1.36,4.521-3.298c0-2.142-1.633-3.128-4.284-3.128c-1.224,0-1.938,0.068-2.38,0.17V60.936z M241.035,71.475    c0.545,0.067,1.258,0.102,2.21,0.102c2.687,0,5.065-1.02,5.065-3.842c0-2.651-2.312-3.739-5.201-3.739h-2.074V71.475z"
   id="path36"
   style="fill:#000039;fill-opacity:1" />
	</g>
</g>
<g
   id="top">
	<polygon
   fill="#FFFFFF"
   stroke="#000000"
   stroke-width="4"
   stroke-miterlimit="10"
   points="50.002,19.25 109.423,49.85    50.002,81.566  "
   id="polygon39" />
	<path
   fill="none"
   stroke="#000000"
   stroke-width="4"
   stroke-miterlimit="10"
   d="M51.114,37.5H16.916H51.114z"
   id="path41" />
	<line
   fill="none"
   stroke="#000000"
   stroke-width="4"
   stroke-miterlimit="10"
   x1="257.781"
   y1="49.75"
   x2="105.25"
   y2="49.75"
   id="line43" />
	<circle
   fill="none"
   stroke="#000000"
   stroke-width="4"
   stroke-miterlimit="10"
   cx="264.879"
   cy="49.308"
   r="7.098"
   id="circle45" />
	<line
   fill="none"
   stroke="#000000"
   stroke-width="2"
   stroke-miterlimit="10"
   x1="56.583"
   y1="63.667"
   x2="64.416"
   y2="63.667"
   id="line47" />
	<line
   fill="none"
   stroke="#000000"
   stroke-width="2"
   stroke-miterlimit="10"
   x1="60.499"
   y1="67.583"
   x2="60.499"
   y2="59.75"
   id="line49" />
	<line
   fill="none"
   stroke="#000000"
   stroke-width="2"
   stroke-miterlimit="10"
   x1="56.082"
   y1="37.5"
   x2="63.916"
   y2="37.5"
   id="line51" />
	<line
   fill="none"
   stroke="#000000"
   stroke-width="4"
   stroke-miterlimit="10"
   x1="18.25"
   y1="20.028"
   x2="18.25"
   y2="54.971"
   id="line53" />
	<line
   fill="none"
   stroke="#000000"
   stroke-width="4"
   stroke-miterlimit="10"
   x1="11.75"
   y1="20.028"
   x2="11.75"
   y2="54.971"
   id="line55" />
</g>
</svg>